<?xml version="1.0" encoding="utf-8"?>
<!-- Generator: Adobe Illustrator 23.0.2, SVG Export Plug-In . SVG Version: 6.00 Build 0)  -->
<svg version="1.1" id="Calque_1" xmlns="http://www.w3.org/2000/svg" xmlns:xlink="http://www.w3.org/1999/xlink" x="0px" y="0px"
	 viewBox="0 0 148.2 86.4" style="enable-background:new 0 0 148.2 86.4;" xml:space="preserve">
<style type="text/css">
	.st0{fill:#FFFFFF;}
	.st1{fill:#878787;}
	.st2{fill:#706F6F;}
	.st3{fill:#009FE3;}
</style>
<polygon class="st0" points="2.9,53.6 0,56.7 0,69 2.9,72.1 9.7,72.1 12.6,69 12.6,66.2 9.7,66.2 9.7,67.9 8.7,68.9 4.6,68.9 
	3.1,67.9 3.1,57.9 4.6,56.4 8.7,56.4 9.7,57.9 9.7,59.1 12.6,59.1 12.6,56.7 10,53.6 "/>
<path class="st0" d="M21.8,56.7v4.8h4.9l1.7-1.7v-1.7L27,56.7H21.8z M18.7,53.6h9.6l2.8,2.8v5L28.6,64l3.1,8.2h-3.4l-3.1-7.9h-3.4
	v7.9h-3.1V53.6z"/>
<polygon class="st0" points="49.6,53.6 45.3,62.8 45.3,72.1 42.2,72.1 42.2,62.8 37.9,53.6 41.3,53.6 43.7,58.9 46.2,53.6 "/>
<path class="st0" d="M65.5,67.9v-10l-1.3-1.5h-3.8l-1.5,1.5v10l1.5,1.4h3.8L65.5,67.9z M68.8,69l-3.4,3.1h-6.3L55.8,69V56.7l3.2-3.1
	h6.5l3.2,3.1V69z"/>
<polygon class="st0" points="87.3,56.7 82.7,56.7 82.7,72.1 79.6,72.1 79.6,56.7 74.9,56.7 74.9,53.6 87.3,53.6 "/>
<polygon class="st0" points="93.5,53.6 104.6,53.6 104.6,56.4 96.6,56.4 96.6,61.3 103.5,61.3 103.5,64.1 96.6,64.1 96.6,69 
	104.6,69 104.6,72.1 93.5,72.1 "/>
<path class="st0" d="M113.9,56.7v4.8h4.9l1.7-1.7v-1.7l-1.4-1.4H113.9z M110.8,53.6h9.6l2.8,2.8v5l-2.5,2.5l3.1,8.2h-3.4l-3.1-7.9
	h-3.4v7.9h-3.1V53.6z"/>
<path class="st0" d="M136,59.6l-1.4,5.7h3.1l-1.4-5.7H136z M134.6,53.6h3.1l4.6,18.6h-2.8l-0.9-3.7h-4.9l-0.9,3.7h-2.9L134.6,53.6z"
	/>
<g>
	<path class="st1" d="M145.8,55.4c0.6,0,0.6,0.9,0,0.9H145v-0.9H145.8z M146,56.7c1.1-0.2,1-1.8-0.3-1.8h-1.3v2.8h0.5v-1h0.5l0.8,1
		h0.6v-0.1L146,56.7L146,56.7z M143.4,56.3c0,1.3,0.8,2.2,2.1,2.2c1.4,0,2.2-1,2.2-2.2c0-1.3-0.8-2.2-2.2-2.2
		C144.1,54.1,143.4,55.1,143.4,56.3L143.4,56.3z M148.2,56.3c0,1.5-1,2.8-2.7,2.8c-1.7,0-2.7-1.3-2.7-2.8c0-1.5,1-2.8,2.7-2.8
		C147.3,53.6,148.2,54.8,148.2,56.3"/>
	<path class="st0" d="M13.8,81.8h-1.7v2.3h1.7C15.3,84.1,15.3,81.8,13.8,81.8 M12.1,86.3h-0.6v-5.1h2.3c2.4,0,2.4,3.5,0,3.5h-1.7
		V86.3z"/>
	<path class="st0" d="M20.4,79.6l1.1,1v0h-0.6l-0.6-0.6l-0.6,0.6H19v0l1.1-1H20.4z M22.1,83.8c0-1-0.6-2.1-2-2.1c-1.3,0-2,1-2,2.1
		c0,1,0.6,2,2,2C21.5,85.8,22.1,84.8,22.1,83.8L22.1,83.8z M20.2,81.1c1.7,0,2.6,1.3,2.6,2.7c0,1.3-0.8,2.6-2.6,2.6
		c-1.8,0-2.6-1.3-2.6-2.6C17.6,82.3,18.6,81.1,20.2,81.1"/>
</g>
<polygon class="st0" points="25.3,81.2 25.3,86.3 28.7,86.3 28.7,85.7 25.9,85.7 25.9,81.2 "/>
<polygon class="st0" points="31,81.2 31,86.3 34.7,86.3 34.7,85.7 31.6,85.7 31.6,84 34.4,84 34.4,83.4 31.6,83.4 31.6,81.8 
	34.6,81.8 34.6,81.2 "/>
<g>
	<path class="st0" d="M44.3,83.7c0-0.9-0.6-1.9-1.9-1.9h-1.2v3.9h1.2C43.7,85.7,44.3,84.7,44.3,83.7 M40.5,81.2h1.9
		c1.7,0,2.6,1.2,2.6,2.5c0,1.3-0.8,2.6-2.6,2.6h-1.9V81.2L40.5,81.2z"/>
</g>
<polygon class="st0" points="47.5,81.2 47.5,86.3 51.2,86.3 51.2,85.7 48.1,85.7 48.1,84 50.9,84 50.9,83.4 48.1,83.4 48.1,81.8 
	51.1,81.8 51.1,81.2 "/>
<g>
	<path class="st0" d="M61.3,85.7c-0.5,0.5-1.2,0.8-2,0.8c-2,0-2.7-1.3-2.7-2.7c0-1.3,0.9-2.7,2.7-2.7c0.7,0,1.4,0.3,1.9,0.8
		l-0.7,0.7c-0.3-0.3-0.8-0.4-1.2-0.4c-1.2,0-1.6,0.9-1.6,1.6c0,0.7,0.4,1.6,1.6,1.6c0.4,0,1-0.2,1.3-0.5L61.3,85.7z"/>
	<path class="st0" d="M64.6,82.2v1.5h1.3c0.5,0,0.8-0.4,0.8-0.7c0-0.3-0.2-0.8-0.8-0.8H64.6z M68,86.3h-1.3l-1.3-1.7h-0.8v1.7h-1.1
		v-5.1h2.4c1.2,0,1.9,0.8,1.9,1.7c0,0.7-0.2,1.3-1.2,1.6L68,86.3L68,86.3z"/>
</g>
<polygon class="st0" points="73.2,81.2 71.9,83.2 70.7,81.2 69.4,81.2 69.4,81.3 71.3,84.3 71.3,86.3 72.5,86.3 72.5,84.3 
	74.5,81.3 74.5,81.2 "/>
<g>
	<path class="st0" d="M78.7,82.1c-1,0-1.6,0.7-1.6,1.7c0,1,0.7,1.7,1.6,1.7c1,0,1.6-0.7,1.6-1.7C80.3,82.8,79.7,82.1,78.7,82.1
		 M78.7,86.4c-1.6,0-2.8-1-2.8-2.7s1.1-2.7,2.8-2.7c1.6,0,2.8,1,2.8,2.7S80.3,86.4,78.7,86.4"/>
</g>
<polygon class="st0" points="83.2,81.2 83.2,82.2 84.8,82.2 84.8,86.3 85.9,86.3 85.9,82.2 87.5,82.2 87.5,81.2 "/>
<polygon class="st0" points="93,81.2 93,83.3 90.8,83.3 90.8,81.2 89.6,81.2 89.6,86.3 90.8,86.3 90.8,84.3 93,84.3 93,86.3 
	94.2,86.3 94.2,81.2 "/>
<path class="st0" d="M96.8,81.2v5.1h3.9v-1.1h-2.8v-1h2.5v-1h-2.5v-1h2.7v-1H96.8z M98.7,79.6l-0.5,1v0.1h0.9l0.8-1v0H98.7z"/>
<g>
	<path class="st0" d="M104.2,82.2v1.5h1.3c0.5,0,0.8-0.4,0.8-0.7c0-0.3-0.2-0.8-0.8-0.8H104.2z M107.6,86.3h-1.3l-1.3-1.7h-0.8v1.7
		H103v-5.1h2.4c1.2,0,1.9,0.8,1.9,1.7c0,0.7-0.2,1.3-1.2,1.6L107.6,86.3L107.6,86.3z"/>
</g>
<path class="st0" d="M112.1,82.4l0.9,2.1h-1.8L112.1,82.4z M111.5,81.2l-2.3,5.1h1.2l0.4-0.9h2.6l0.4,0.9h1.2l-2.3-5.1H111.5z"/>
<g>
	<path class="st0" d="M118.2,83.8h1.3c0.5,0,0.8-0.4,0.8-0.8c0-0.4-0.3-0.8-0.8-0.8h-1.3V83.8z M118.2,84.9v1.4H117v-5.1h2.4
		c1.3,0,2,0.8,2,1.8c0,1-0.7,1.8-2,1.8H118.2z"/>
</g>
<rect x="123.6" y="81.2" class="st0" width="1.1" height="5.1"/>
<polygon class="st0" points="127.3,81.2 127.3,86.3 131.2,86.3 131.2,85.3 128.5,85.3 128.5,84.2 131,84.2 131,83.2 128.5,83.2 
	128.5,82.2 131.1,82.2 131.1,81.2 "/>
<polygon class="st2" points="86.7,10.2 86.7,21.2 72.5,28.9 63.9,33.8 64.7,44 81.7,34.2 95.3,26.8 95.3,5.3 "/>
<polygon class="st0" points="86.1,0 72.6,7.8 72.6,18.4 95.3,5.3 "/>
<polygon class="st3" points="64.7,13.9 72.5,18.4 81.7,13.1 64.7,3.3 47,13.5 47,33.8 64.7,44 81.7,34.2 72.5,28.9 64.7,33.4 
	56.2,28.5 56.2,18.7 "/>
</svg>
